<?xml version="1.0" encoding="utf-8"?>
<svg version="1.1" id="logo-white" xmlns="http://www.w3.org/2000/svg" xmlns:xlink="http://www.w3.org/1999/xlink" viewBox="0 0 284.9 120" xml:space="preserve">
<style type="text/css">
	.st2{fill:#FFFFFF;}
</style>
<g>
	<path class="st2" d="M140.5,96.2c-4.8,0-9.3-0.9-13.5-2.7c-4.2-1.8-7.9-4.3-11-7.4c-3.1-3.1-5.6-6.8-7.4-11
		c-1.8-4.2-2.7-8.7-2.7-13.5c0-4.8,0.9-9.3,2.7-13.5c1.8-4.2,4.3-7.9,7.4-11.1c3.1-3.1,6.8-5.6,11-7.5c4.2-1.8,8.8-2.8,13.5-2.8
		c3.3,0,6.4,0.4,9.4,1.3c2.9,0.8,5.7,2,8.4,3.6l2.3,1.3l-1.4,2.2c-0.7,1.1-1.4,2.1-2.1,3.1c-0.7,1-1.4,1.9-2,2.9l-1.3,2l-2.1-1.2
		c-1.7-1-3.5-1.7-5.3-2.3c-1.8-0.5-3.7-0.8-5.8-0.8c-3,0-5.9,0.6-8.6,1.8c-2.7,1.2-5,2.8-7,4.9c-2,2.1-3.6,4.5-4.8,7.3
		c-1.2,2.7-1.7,5.7-1.7,8.7c0,3.1,0.6,6,1.7,8.7c1.2,2.7,2.8,5.1,4.8,7.2c2,2,4.4,3.6,7.1,4.8c2.6,1.2,5.5,1.8,8.6,1.8
		c4,0,7.7-1,11-3l2-1.2l6.9,10.2l-2.4,1.4c-2.6,1.5-5.3,2.7-8.2,3.5C146.9,95.8,143.7,96.2,140.5,96.2"/>
	<path class="st2" d="M170.8,95.5V27.4h19c3.1,0,6,0.3,8.7,1c2.7,0.7,5.1,1.8,7.1,3.2c2,1.5,3.6,3.5,4.8,5.9
		c1.1,2.3,1.7,5.1,1.7,8.2c0,4.2-1,7.9-3,11.2c-1,1.6-2.3,3-3.8,4.1c1.7,1,3.3,2.2,4.6,3.6c1.4,1.5,2.5,3.3,3.3,5.3
		c0.8,2,1.3,4.3,1.3,6.8c0,3.1-0.7,5.9-2,8.3c-1.3,2.3-3.1,4.3-5.3,5.9c-2.1,1.5-4.6,2.7-7.3,3.4c-2.7,0.7-5.4,1.1-8.2,1.1H170.8z
		 M190.8,83.3c1.6,0,3.2-0.2,4.6-0.5c1.3-0.3,2.5-0.9,3.4-1.5c0.9-0.7,1.6-1.4,2.2-2.4c0.5-0.9,0.7-1.9,0.7-3.2
		c0-1.4-0.3-2.6-0.9-3.5c-0.6-1.1-1.5-1.9-2.5-2.6c-1.1-0.7-2.4-1.2-3.9-1.6c-1.6-0.4-3.3-0.6-4.9-0.6h-6.2v16H190.8z M190.6,55.1
		c2.9,0,5.1-0.7,6.7-2.3c1.6-1.5,2.3-3.5,2.3-6c0-2.7-0.7-4.5-2.1-5.5c-1.7-1.2-4.1-1.8-7-1.8h-7v15.5H190.6z"/>
	<path class="st2" d="M280.5,97.6c-7.7-8.2-15.4-16.4-23-24.5c-6.6-7.1-13.3-14.2-20.1-21.3v43.7h-12.5V20.6l4.4,4.8
		c7.7,8.4,15.4,16.7,23,25c6.6,7.2,13.3,14.4,20.1,21.8V27.4h12.5v74.8L280.5,97.6z"/>
	<path class="st2" d="M84.6,74.4c-2.5,0-4.7,0.7-6.5,2.2L77.6,77l-1.1,1.1l-9.4,9.4c-6,4.8-14.6,4.4-20.2-1.1
		c-4.8-4.8-5.7-12.1-2.7-17.8l13.1-13.3c3.7-4.1,5.9-9.5,5.9-15.4c0-12.7-10.3-23-23-23c-5.5,0-10.5,1.9-14.5,5.1l-1,0.8
		c-9.3,8.8-15.3,21-15.3,34.8c0,26.8,21.7,48.4,48.4,48.4c14.2,0,26.9-6,35.7-15.7l0.1-0.2c0.9-1.5,1.3-3.3,1.3-5.3
		C95.1,79.1,90.4,74.4,84.6,74.4z"/>
	<path class="st2" d="M21.1,10.5c0,5.8-4.7,10.5-10.5,10.5C4.7,21.1,0,16.4,0,10.5C0,4.7,4.7,0,10.5,0C16.4,0,21.1,4.7,21.1,10.5"/>
	<path class="st2" d="M70.9,117.8c2.2,0.4-3.6,2.3-13,2.2c-9.4,0-15.2-2-12.9-2.6c2.3-0.6,8-0.2,13,0
		C63,117.6,68.7,117.3,70.9,117.8"/>
</g>
</svg>
